# File created by Blade
# Date/Time:  Thu Sep 25 19:26:26 2014
# Frame Rate: 120.000 fps
#------------------------------------------------------
:FULLY-SPECIFIED
:DEGREES
1090
root 1.037293 31.512888 -13.536211 109.150009 31.733227 8.117796
Spine 41.905525 -1.359766 -0.518312
Head 4.894669 -20.925617 -38.340770
LeftShoulder 7.590980 -49.380301 33.762083
LeftArm 39.046596 -14.080187 -37.774561
LeftForeArm 11.573389 -0.000000 35.332573
LeftHand -39.895775 0.000000 76.426646
LeftHandThumb1 -26.253704 0.000000 33.147579
RightShoulder -17.057488 65.371972 -71.541086
RightArm 46.389388 -0.940482 44.041678
RightForeArm -56.957237 -0.000000 44.218542
RightHand -14.026969 -0.000000 -21.937675
RightHandThumb1 -24.326973 -0.000000 -32.862282
LeftUpLeg -119.863621 2.873318 4.336143
LeftLeg 0.565222 -0.000000 -0.000000
LeftFoot 9.755075 -5.852853 -27.055903
LeftToeBase 5.891224 -0.000000 -0.000000
RightUpLeg -110.268804 -18.997943 36.627959
RightLeg 0.140328 -0.000000 -0.000000
RightFoot 2.139999 -20.176435 16.439823
RightToeBase 5.725278 -0.000000 -0.000000
1091
root 1.031784 31.511446 -13.554659 109.041370 31.711372 8.101360
Spine 41.774903 -1.364876 -0.424503
Head 4.420107 -21.034683 -38.499754
LeftShoulder 7.547480 -49.177218 33.659614
LeftArm 39.162847 -13.708110 -37.458340
LeftForeArm 10.982077 0.000000 35.013211
LeftHand -39.928204 -0.000000 75.550777
LeftHandThumb1 -26.253704 0.000000 33.147579
RightShoulder -17.031658 65.627181 -71.517240
RightArm 46.473413 -1.367670 44.010894
RightForeArm -56.499293 0.000000 43.685627
RightHand -13.699890 0.000000 -22.197618
RightHandThumb1 -24.326973 -0.000000 -32.862282
LeftUpLeg -119.771774 2.926223 4.427870
LeftLeg 0.528765 -0.000000 -0.000000
LeftFoot 9.749650 -5.751616 -27.143899
LeftToeBase 5.793271 -0.000000 -0.000000
RightUpLeg -110.192299 -19.035688 36.606570
RightLeg 0.068146 -0.000000 -0.000000
RightFoot 2.193699 -20.157412 16.457386
RightToeBase 5.712173 -0.000000 -0.000000
1092
root 1.027946 31.509707 -13.572937 108.928599 31.686932 8.093819
Spine 41.650758 -1.382848 -0.321247
Head 3.906432 -21.187053 -38.678943
LeftShoulder 7.508301 -49.072612 33.508472
LeftArm 39.300750 -13.189767 -37.106473
LeftForeArm 10.260726 -0.000000 34.635679
LeftHand -40.286973 -0.000000 74.368771
LeftHandThumb1 -26.253704 0.000000 33.147579
RightShoulder -17.008851 66.040206 -71.528656
RightArm 46.372780 -1.811394 44.146651
RightForeArm -56.155635 -0.000000 43.282915
RightHand -13.343404 -0.000000 -22.324050
RightHandThumb1 -24.326973 -0.000000 -32.862282
LeftUpLeg -119.657362 2.985681 4.549448
LeftLeg 0.469476 -0.000000 -0.000000
LeftFoot 9.697089 -5.651081 -27.146169
LeftToeBase 5.868406 -0.000000 -0.000000
RightUpLeg -110.098594 -19.090483 36.580028
RightLeg -0.035156 -0.000000 0.000000
RightFoot 2.293063 -20.139451 16.404446
RightToeBase 5.694856 -0.000000 -0.000000
1093
root 1.023812 31.507056 -13.590511 108.759149 31.640202 8.065497
Spine 41.599621 -1.324639 -0.204440
Head 3.270044 -21.449149 -38.841718
LeftShoulder 7.580729 -49.059991 33.291584
LeftArm 39.455888 -12.708933 -36.784111
LeftForeArm 9.691173 -0.000000 34.152718
LeftHand -40.230241 -0.000000 73.664200
LeftHandThumb1 -26.253704 0.000000 33.147579
RightShoulder -17.202273 66.358409 -71.796136
RightArm 46.198722 -2.199689 44.405527
RightForeArm -55.802640 0.000000 42.956132
RightHand -13.140927 0.000000 -22.693535
RightHandThumb1 -24.326973 -0.000000 -32.862282
LeftUpLeg -119.500209 3.039157 4.624190
LeftLeg 0.418207 -0.000000 -0.000000
LeftFoot 9.670194 -5.589619 -27.266800
LeftToeBase 5.779675 -0.000000 -0.000000
RightUpLeg -109.963549 -19.166435 36.502728
RightLeg -0.120847 -0.000000 0.000000
RightFoot 2.358487 -20.138136 16.387291
RightToeBase 5.699083 -0.000000 -0.000000
